<?xml version="1.0" encoding="UTF-8" standalone="no"?>
<!-- Created with Inkscape (http://www.inkscape.org/) -->

<svg
   xmlns:dc="http://purl.org/dc/elements/1.1/"
   xmlns:cc="http://creativecommons.org/ns#"
   xmlns:rdf="http://www.w3.org/1999/02/22-rdf-syntax-ns#"
   xmlns:svg="http://www.w3.org/2000/svg"
   xmlns="http://www.w3.org/2000/svg"
   xmlns:sodipodi="http://sodipodi.sourceforge.net/DTD/sodipodi-0.dtd"
   xmlns:inkscape="http://www.inkscape.org/namespaces/inkscape"
   width="231"
   height="154"
   viewBox="0 0 61.118737 40.745843"
   version="1.1"
   id="svg1036"
   inkscape:version="0.92.2 (5c3e80d, 2017-08-06)"
   sodipodi:docname="goodmeasurebakery.dark.logo.svg">
  <defs
     id="defs1030" />
  <sodipodi:namedview
     id="base"
     pagecolor="#ffffff"
     bordercolor="#666666"
     borderopacity="1.0"
     inkscape:pageopacity="0.0"
     inkscape:pageshadow="2"
     inkscape:zoom="2.8"
     inkscape:cx="177.12235"
     inkscape:cy="52.854139"
     inkscape:document-units="mm"
     inkscape:current-layer="g1705"
     showgrid="false"
     units="px"
     inkscape:showpageshadow="false"
     inkscape:pagecheckerboard="true"
     inkscape:window-width="1920"
     inkscape:window-height="1027"
     inkscape:window-x="-8"
     inkscape:window-y="-8"
     inkscape:window-maximized="1" />
  <metadata
     id="metadata1033">
    <rdf:RDF>
      <cc:Work
         rdf:about="">
        <dc:format>image/svg+xml</dc:format>
        <dc:type
           rdf:resource="http://purl.org/dc/dcmitype/StillImage" />
        <dc:title></dc:title>
      </cc:Work>
    </rdf:RDF>
  </metadata>
  <g
     inkscape:label="Layer 1"
     inkscape:groupmode="layer"
     id="layer1"
     transform="translate(0,-256.25406)">
    <g
       id="g1705"
       transform="translate(-14.066875,238.2143)">
      <g
         id="g1017"
         style="display:inline;fill:#ffcc00;stroke:none"
         transform="matrix(0.7013856,0,0,0.7013856,-12.363399,-117.76539)"
         inkscape:export-xdpi="73.734161"
         inkscape:export-ydpi="73.734161"
         inkscape:export-filename="C:\workroot\thegoodmeasure\www\iPhone-6-Plus.png">
        <g
           id="g1011"
           transform="matrix(0.69154312,-0.01583808,0.01583808,0.69154312,16.40055,125.62607)"
           style="fill:#ffcc00;stroke:none"
           inkscape:transform-center-x="-10.339659"
           inkscape:transform-center-y="0.4126619">
          <path
             style="fill:#ffcc00;stroke:none;stroke-width:1;stroke-linecap:round;stroke-miterlimit:4;stroke-dasharray:none;stroke-opacity:1;paint-order:markers stroke fill"
             d="m 147.2392,167.49492 c -0.56618,0.0307 -1.06514,0.25299 -1.45727,0.49506 0.89492,0.28046 1.22787,0.86296 1.8371,1.28571 0.19215,0.13334 0.49407,0.30143 0.81752,0.47284 0.2244,-0.10759 0.4486,-0.2151 0.69866,-0.29353 0.74862,-0.23478 2.75177,-0.49661 2.75177,-0.49661 0,0 -2.93168,-1.38304 -4.38009,-1.46347 -0.0905,-0.005 -0.17989,-0.005 -0.26769,0 z"
             id="path983"
             inkscape:connector-curvature="0" />
          <path
             inkscape:transform-center-y="-0.25551536"
             inkscape:transform-center-x="-3.4719587"
             sodipodi:nodetypes="czczzc"
             inkscape:connector-curvature="0"
             id="path985"
             d="m 148.18525,166.51012 c 0,0 -3.15538,-0.74145 -4.58873,-0.51818 -1.43336,0.22332 -2.2712,1.68299 -2.2712,1.68299 0,0 1.12624,1.20197 2.16552,1.0401 1.03931,-0.16186 1.42349,-0.75967 2.10674,-1.14535 0.68322,-0.38567 2.58767,-1.05956 2.58767,-1.05956 z"
             style="fill:#ffcc00;stroke:none;stroke-width:1;stroke-linecap:round;stroke-miterlimit:4;stroke-dasharray:none;stroke-opacity:1;paint-order:markers stroke fill" />
          <path
             inkscape:transform-center-y="1.526152"
             inkscape:transform-center-x="-2.8820304"
             sodipodi:nodetypes="czczzc"
             inkscape:connector-curvature="0"
             id="path987"
             d="m 144.98909,171.44745 c 0,0 -3.24047,-0.0749 -4.5718,-0.65099 -1.33133,-0.57613 -1.77567,-2.19947 -1.77567,-2.19947 0,0 1.39202,-0.88058 2.35734,-0.46286 0.96533,0.41775 1.18705,1.09286 1.75153,1.63778 0.56445,0.54492 2.2386,1.67554 2.2386,1.67554 z"
             style="fill:#ffcc00;stroke:none;stroke-width:1;stroke-linecap:round;stroke-miterlimit:4;stroke-dasharray:none;stroke-opacity:1;paint-order:markers stroke fill" />
          <path
             inkscape:transform-center-y="-0.41404752"
             inkscape:transform-center-x="-3.4351937"
             sodipodi:nodetypes="czczzc"
             inkscape:connector-curvature="0"
             id="path989"
             d="m 143.86928,165.4956 c 0,0 -3.19727,-0.53265 -4.61287,-0.21575 -1.41559,0.31696 -2.15579,1.82848 -2.15579,1.82848 0,0 1.20273,1.12544 2.22915,0.89567 1.02643,-0.22975 1.37053,-0.85149 2.02698,-1.28121 0.65643,-0.42969 2.51253,-1.22719 2.51253,-1.22719 z"
             style="fill:#ffcc00;stroke:none;stroke-width:1;stroke-linecap:round;stroke-miterlimit:4;stroke-dasharray:none;stroke-opacity:1;paint-order:markers stroke fill" />
          <path
             inkscape:transform-center-y="2.0652047"
             inkscape:transform-center-x="-2.5825354"
             sodipodi:nodetypes="czczzc"
             inkscape:connector-curvature="0"
             id="path991"
             d="m 140.42894,171.67605 c 0,0 -3.19163,-0.56543 -4.4202,-1.33678 -1.22856,-0.77136 -1.42159,-2.44332 -1.42159,-2.44332 0,0 1.50947,-0.65928 2.40028,-0.1 0.89081,0.55931 1.00758,1.26024 1.4829,1.88446 0.47529,0.62421 1.95861,1.99566 1.95861,1.99566 z"
             style="fill:#ffcc00;stroke:none;stroke-width:1;stroke-linecap:round;stroke-miterlimit:4;stroke-dasharray:none;stroke-opacity:1;paint-order:markers stroke fill" />
          <path
             inkscape:transform-center-y="-0.75972166"
             inkscape:transform-center-x="-3.3226087"
             sodipodi:nodetypes="czczzc"
             inkscape:connector-curvature="0"
             id="path993"
             d="m 139.60913,164.46045 c 0,0 -3.23894,-0.12428 -4.60313,0.36901 -1.36419,0.49333 -1.90741,2.08629 -1.90741,2.08629 0,0 1.33533,0.96439 2.32448,0.60673 0.98917,-0.35764 1.25193,-1.01788 1.8488,-1.52712 0.59685,-0.50921 2.33726,-1.53491 2.33726,-1.53491 z"
             style="fill:#ffcc00;stroke:none;stroke-width:1;stroke-linecap:round;stroke-miterlimit:4;stroke-dasharray:none;stroke-opacity:1;paint-order:markers stroke fill" />
          <path
             inkscape:transform-center-y="2.0773693"
             inkscape:transform-center-x="-2.5743604"
             sodipodi:nodetypes="czczzc"
             inkscape:connector-curvature="0"
             id="path995"
             d="m 136.71026,171.32842 c 0,0 -3.18951,-0.57732 -4.41521,-1.35324 -1.22567,-0.77595 -1.41246,-2.44861 -1.41246,-2.44861 0,0 1.51192,-0.65365 2.40064,-0.091 0.88872,0.56262 1.00288,1.26398 1.47587,1.88997 0.47296,0.62598 1.95116,2.00294 1.95116,2.00294 z"
             style="fill:#ffcc00;stroke:none;stroke-width:1;stroke-linecap:round;stroke-miterlimit:4;stroke-dasharray:none;stroke-opacity:1;paint-order:markers stroke fill" />
          <path
             inkscape:transform-center-y="-0.94637352"
             inkscape:transform-center-x="-3.2571737"
             sodipodi:nodetypes="czczzc"
             inkscape:connector-curvature="0"
             id="path997"
             d="m 135.36009,163.91595 c 0,0 -3.24089,0.0536 -4.57597,0.62097 -1.33507,0.56742 -1.79008,2.18779 -1.79008,2.18779 0,0 1.38621,0.88969 2.35425,0.4783 0.96807,-0.41137 1.19421,-1.08503 1.76225,-1.62624 0.56801,-0.54119 2.24955,-1.66082 2.24955,-1.66082 z"
             style="fill:#ffcc00;stroke:none;stroke-width:1;stroke-linecap:round;stroke-miterlimit:4;stroke-dasharray:none;stroke-opacity:1;paint-order:markers stroke fill" />
          <path
             inkscape:transform-center-y="2.0815626"
             inkscape:transform-center-x="-2.5711004"
             sodipodi:nodetypes="czczzc"
             inkscape:connector-curvature="0"
             id="path999"
             d="m 132.97902,171.07979 c 0,0 -3.18834,-0.58367 -4.41248,-1.36204 -1.22413,-0.77839 -1.40758,-2.45142 -1.40758,-2.45142 0,0 1.51322,-0.65064 2.40082,-0.0862 0.88759,0.5644 1.00035,1.26598 1.47208,1.89292 0.47171,0.62691 1.94718,2.00682 1.94718,2.00682 z"
             style="fill:#ffcc00;stroke:none;stroke-width:1;stroke-linecap:round;stroke-miterlimit:4;stroke-dasharray:none;stroke-opacity:1;paint-order:markers stroke fill" />
          <path
             inkscape:transform-center-y="-1.0987026"
             inkscape:transform-center-x="-3.2055637"
             sodipodi:nodetypes="czczzc"
             inkscape:connector-curvature="0"
             id="path1001"
             d="m 131.70298,163.34172 c 0,0 -3.23646,0.17746 -4.54874,0.79613 -1.31232,0.61825 -1.7048,2.25488 -1.7048,2.25488 0,0 1.41934,0.83583 2.37087,0.3876 0.95156,-0.44823 1.15169,-1.13006 1.69853,-1.69268 0.54683,-0.56259 2.18414,-1.74593 2.18414,-1.74593 z"
             style="fill:#ffcc00;stroke:none;stroke-width:1;stroke-linecap:round;stroke-miterlimit:4;stroke-dasharray:none;stroke-opacity:1;paint-order:markers stroke fill" />
          <path
             inkscape:transform-center-y="2.1706949"
             inkscape:transform-center-x="-2.5090954"
             sodipodi:nodetypes="czczzc"
             inkscape:connector-curvature="0"
             id="path1003"
             d="m 129.20908,170.86794 c 0,0 -3.1713,-0.67019 -4.37382,-1.48155 -1.20251,-0.81139 -1.34038,-2.48878 -1.34038,-2.48878 0,0 1.53035,-0.60926 2.40227,-0.0209 0.8719,0.58833 0.96554,1.29272 1.42005,1.93226 0.45449,0.63951 1.89187,2.05904 1.89187,2.05904 z"
             style="fill:#ffcc00;stroke:none;stroke-width:1;stroke-linecap:round;stroke-miterlimit:4;stroke-dasharray:none;stroke-opacity:1;paint-order:markers stroke fill" />
          <path
             inkscape:transform-center-y="-1.4683354"
             inkscape:transform-center-x="-3.0622137"
             sodipodi:nodetypes="czczzc"
             inkscape:connector-curvature="0"
             id="path1005"
             d="m 128.09578,162.56954 c 0,0 -3.20629,0.47519 -4.45593,1.21224 -1.2497,0.73664 -1.48958,2.4025 -1.48958,2.4025 0,0 1.49037,0.70136 2.39651,0.1673 0.90617,-0.53408 1.04256,-1.23147 1.53518,-1.84212 0.49262,-0.61062 2.01382,-1.93992 2.01382,-1.93992 z"
             style="fill:#ffcc00;stroke:none;stroke-width:1;stroke-linecap:round;stroke-miterlimit:4;stroke-dasharray:none;stroke-opacity:1;paint-order:markers stroke fill" />
          <path
             inkscape:transform-center-y="2.1050624"
             inkscape:transform-center-x="-1.8063581"
             sodipodi:nodetypes="czczzc"
             inkscape:connector-curvature="0"
             id="path1007"
             d="m 124.80788,170.30417 c 0,0 -2.47609,-0.83543 -3.36916,-1.62847 -0.89302,-0.79305 -0.86504,-2.23807 -0.86504,-2.23807 0,0 1.27162,-0.39395 1.91916,0.18107 0.64751,0.57505 0.66429,1.1848 0.97443,1.76904 0.31013,0.5842 1.3406,1.91645 1.3406,1.91645 z"
             style="fill:#ffcc00;stroke:none;stroke-width:0.83004665;stroke-linecap:round;stroke-miterlimit:4;stroke-dasharray:none;stroke-opacity:1;paint-order:markers stroke fill" />
          <path
             style="fill:#ffcc00;stroke:none;stroke-width:1;stroke-linecap:round;stroke-miterlimit:4;stroke-dasharray:none;stroke-opacity:1;paint-order:markers stroke fill"
             d="m 150.22317,171.03495 c 0,0 -3.21049,0.44605 -4.61702,0.091 -1.40652,-0.35505 -2.10557,-1.88607 -2.10557,-1.88607 0,0 1.2327,-1.09251 2.25252,-0.8351 1.01986,0.25745 1.34703,0.88823 1.99163,1.33552 0.64457,0.4473 2.47844,1.29466 2.47844,1.29466 z"
             id="path1009"
             inkscape:connector-curvature="0"
             sodipodi:nodetypes="czczzc"
             inkscape:transform-center-x="-3.1315754"
             inkscape:transform-center-y="0.94288634" />
        </g>
        <path
           sodipodi:nodetypes="ccsc"
           inkscape:connector-curvature="0"
           id="path1013"
           d="m 84.880249,237.57652 c 33.286381,2.32409 17.603131,14.14094 17.603131,14.14094 0,0 14.89862,-11.44014 -19.012951,-13.61852 -1.01627,-0.0653 1.40982,-0.52242 1.40982,-0.52242 z"
           style="fill:#ffcc00;stroke:none;stroke-width:0.21797685px;stroke-linecap:butt;stroke-linejoin:miter;stroke-opacity:1" />
        <path
           sodipodi:nodetypes="ccccsc"
           inkscape:connector-curvature="0"
           id="path1015"
           d="m 38.386144,239.32736 c 21.836782,-2.52807 49.343315,-2.03556 63.641886,-1.25497 0.45576,0.0947 -0.0983,0.61324 -0.64152,0.65857 -11.315621,-0.78131 -40.598069,-1.18067 -61.763208,0.79741 -0.92676,0.0948 -1.501805,-0.16527 -1.237179,-0.20101 z"
           style="fill:#ffcc00;stroke:none;stroke-width:0.16934283px;stroke-linecap:butt;stroke-linejoin:miter;stroke-opacity:1" />
      </g>
      <g
         inkscape:export-ydpi="73.734161"
         inkscape:export-xdpi="73.734161"
         inkscape:export-filename="C:\workroot\thegoodmeasure\www\iPhone-6-Plus.png"
         id="text1021"
         style="font-style:normal;font-variant:normal;font-weight:normal;font-stretch:normal;font-size:4.08395481px;line-height:1.25;font-family:'Pictorial Signature';-inkscape-font-specification:'Pictorial Signature';text-align:center;letter-spacing:0px;word-spacing:0px;text-anchor:middle;display:inline;fill:#ffffff;fill-opacity:1;stroke:#ffffff;stroke-width:0.16603369;stroke-miterlimit:4;stroke-dasharray:none;stroke-opacity:1"
         aria-label="BAKERY"
         transform="matrix(1.3197516,0,0,1.3197516,-97.865363,-300.52491)">
        <path
           inkscape:connector-curvature="0"
           id="path1053"
           style="font-style:normal;font-variant:normal;font-weight:normal;font-stretch:normal;font-size:4.08403969px;font-family:GeosansLight;-inkscape-font-specification:'GeosansLight Medium';font-variant-ligatures:normal;font-variant-caps:normal;font-variant-numeric:normal;font-feature-settings:normal;text-align:center;letter-spacing:0.47886258px;writing-mode:lr-tb;text-anchor:middle;fill:#ffffff;stroke:#ffffff;stroke-width:0.16603369;stroke-miterlimit:4;stroke-dasharray:none;stroke-opacity:1;fill-opacity:1"
           d="m 102.48417,269.38696 q 0,-0.31447 -0.18378,-0.53092 -0.18787,-0.21645 -0.49417,-0.27772 0.31447,-0.17969 0.31447,-0.56359 0,-0.33489 -0.21237,-0.52276 -0.20012,-0.17561 -0.53909,-0.17561 h -0.71062 v 2.916 h 0.91074 q 0.3839,0 0.64936,-0.23687 0.26546,-0.23279 0.26546,-0.60853 z m -0.53092,-1.37223 q 0,0.23687 -0.1552,0.3839 -0.15519,0.14702 -0.39207,0.14702 h -0.58401 v -1.06185 h 0.55951 q 0.24096,0 0.4084,0.14703 0.16337,0.13885 0.16337,0.3839 z m 0.36756,1.37223 q 0,0.30222 -0.22054,0.49009 -0.21645,0.18787 -0.52684,0.18787 h -0.75146 v -1.35182 h 0.75146 q 0.31447,0 0.52276,0.1797 0.22462,0.18786 0.22462,0.49416 z" />
        <path
           inkscape:connector-curvature="0"
           id="path1055"
           style="font-style:normal;font-variant:normal;font-weight:normal;font-stretch:normal;font-size:4.08403969px;font-family:GeosansLight;-inkscape-font-specification:'GeosansLight Medium';font-variant-ligatures:normal;font-variant-caps:normal;font-variant-numeric:normal;font-feature-settings:normal;text-align:center;letter-spacing:0.47886258px;writing-mode:lr-tb;text-anchor:middle;fill:#ffffff;stroke:#ffffff;stroke-width:0.16603369;stroke-miterlimit:4;stroke-dasharray:none;stroke-opacity:1;fill-opacity:1"
           d="m 105.48324,270.23236 -1.16804,-3.00994 -1.16395,3.00994 h 0.16336 l 0.33898,-0.87398 h 1.32731 l 0.33489,0.87398 z m -0.57177,-1.04143 h -1.19254 l 0.59627,-1.54377 z" />
        <path
           inkscape:connector-curvature="0"
           id="path1057"
           style="font-style:normal;font-variant:normal;font-weight:normal;font-stretch:normal;font-size:4.08403969px;font-family:GeosansLight;-inkscape-font-specification:'GeosansLight Medium';font-variant-ligatures:normal;font-variant-caps:normal;font-variant-numeric:normal;font-feature-settings:normal;text-align:center;letter-spacing:0.47886258px;writing-mode:lr-tb;text-anchor:middle;fill:#ffffff;stroke:#ffffff;stroke-width:0.16603369;stroke-miterlimit:4;stroke-dasharray:none;stroke-opacity:1;fill-opacity:1"
           d="m 108.19112,270.23236 -1.51926,-1.52335 1.39674,-1.39265 h -0.23687 l -1.30281,1.29464 v -1.29464 h -0.16745 v 2.916 h 0.16745 v -1.38449 l 0.0245,-0.0245 1.40491,1.40899 z" />
        <path
           inkscape:connector-curvature="0"
           id="path1059"
           style="font-style:normal;font-variant:normal;font-weight:normal;font-stretch:normal;font-size:4.08403969px;font-family:GeosansLight;-inkscape-font-specification:'GeosansLight Medium';font-variant-ligatures:normal;font-variant-caps:normal;font-variant-numeric:normal;font-feature-settings:normal;text-align:center;letter-spacing:0.47886258px;writing-mode:lr-tb;text-anchor:middle;fill:#ffffff;stroke:#ffffff;stroke-width:0.16603369;stroke-miterlimit:4;stroke-dasharray:none;stroke-opacity:1;fill-opacity:1"
           d="m 110.39932,270.23236 v -0.16744 h -1.23338 v -1.33957 h 1.23338 v -0.1797 h -1.23338 v -1.06185 h 1.23338 v -0.16744 h -1.40082 v 2.916 z" />
        <path
           inkscape:connector-curvature="0"
           id="path1061"
           style="font-style:normal;font-variant:normal;font-weight:normal;font-stretch:normal;font-size:4.08403969px;font-family:GeosansLight;-inkscape-font-specification:'GeosansLight Medium';font-variant-ligatures:normal;font-variant-caps:normal;font-variant-numeric:normal;font-feature-settings:normal;text-align:center;letter-spacing:0.47886258px;writing-mode:lr-tb;text-anchor:middle;fill:#ffffff;stroke:#ffffff;stroke-width:0.16603369;stroke-miterlimit:4;stroke-dasharray:none;stroke-opacity:1;fill-opacity:1"
           d="m 112.82168,270.23236 -0.93525,-1.458 q 0.17562,0 0.32264,-0.0408 0.14703,-0.0449 0.25321,-0.13478 0.11027,-0.0898 0.16745,-0.2287 0.0613,-0.13886 0.0613,-0.33081 0,-0.17561 -0.0653,-0.31039 -0.0613,-0.13477 -0.16744,-0.22462 -0.10619,-0.0939 -0.25321,-0.13886 -0.14703,-0.049 -0.31039,-0.049 h -0.67387 v 2.916 h 0.16336 v -1.458 h 0.31448 l 0.92707,1.458 z m -0.30222,-2.19721 q 0,0.27771 -0.16336,0.42474 -0.15928,0.14702 -0.42066,0.14702 h -0.55135 v -1.12311 h 0.50643 q 0.13068,0 0.24504,0.0368 0.11435,0.0327 0.20012,0.1021 0.0858,0.0653 0.13477,0.17153 0.049,0.1021 0.049,0.24096 z" />
        <path
           inkscape:connector-curvature="0"
           id="path1063"
           style="font-style:normal;font-variant:normal;font-weight:normal;font-stretch:normal;font-size:4.08403969px;font-family:GeosansLight;-inkscape-font-specification:'GeosansLight Medium';font-variant-ligatures:normal;font-variant-caps:normal;font-variant-numeric:normal;font-feature-settings:normal;text-align:center;letter-spacing:0.47886258px;writing-mode:lr-tb;text-anchor:middle;fill:#ffffff;stroke:#ffffff;stroke-width:0.16603369;stroke-miterlimit:4;stroke-dasharray:none;stroke-opacity:1;fill-opacity:1"
           d="m 115.20022,267.31636 h -0.19195 l -0.72696,1.26196 -0.71879,-1.26196 h -0.19195 l 0.82906,1.458 v 1.458 h 0.16745 v -1.458 z" />
      </g>
      <path
         style="display:inline;fill:#ffcc00;fill-opacity:1;stroke:none;stroke-width:0.26583511;stroke-linecap:round;stroke-miterlimit:4;stroke-dasharray:none;stroke-opacity:1;paint-order:markers stroke fill"
         d="m 44.601186,18.143295 c 0,0 -1.134732,5.46818 -7.937341,7.67846 -6.80261,2.21031 -10.93418,-1.54649 -10.93418,-1.54649 0,0 2.09231,5.37088 -1.907839,10.87662 -4.000141,5.50572 -9.754951,5.1758 -9.754951,5.1758 0,0 4.95169,1.4994 5.4016,8.0518 0.107101,0.107569 0.242351,0.0021 0.242351,0.0021 0.621589,-13.345123 11.530769,-23.147524 24.89036,-23.164244 12.90747,0.012 23.689919,9.8356 24.89925,22.686291 0.17627,0.004 -0.0554,0.0353 0.134278,0.0545 0.870942,-5.438619 5.500791,-7.630499 5.500791,-7.630499 0,0 -5.711859,0.38965 -9.75541,-5.17581 -4.043529,-5.565371 -1.90782,-10.876542 -1.90782,-10.876542 0,0 -3.7734,3.46524 -10.93419,1.5465 -7.160789,-1.919076 -7.936899,-7.678826 -7.936899,-7.678826 z"
         id="path1023"
         inkscape:connector-curvature="0"
         sodipodi:nodetypes="cccscccccccscccc"
         inkscape:export-filename="C:\workroot\thegoodmeasure\www\iPhone-6-Plus.png"
         inkscape:export-xdpi="73.734161"
         inkscape:export-ydpi="73.734161" />
      <g
         style="font-style:normal;font-variant:normal;font-weight:normal;font-stretch:normal;font-size:medium;line-height:1.25;font-family:'LDR Futura';-inkscape-font-specification:'LDR Futura';text-align:center;letter-spacing:0px;word-spacing:0px;text-anchor:middle;display:inline;fill:#ffffff;fill-opacity:1;stroke:none;stroke-width:0.30393827"
         transform="matrix(0.62201438,0,0,0.62201438,-25.323389,-51.978317)"
         id="g1051"
         inkscape:export-filename="C:\workroot\thegoodmeasure\www\iPhone-6-Plus.png"
         inkscape:export-xdpi="73.734161"
         inkscape:export-ydpi="73.734161">
        <g
           transform="translate(-1.641389,16.277935)"
           id="g1033"
           style="fill:#ffffff;fill-opacity:1">
          <path
             inkscape:connector-curvature="0"
             id="path1025"
             style="font-style:normal;font-variant:normal;font-weight:normal;font-stretch:normal;font-size:medium;line-height:1.25;font-family:Porter;-inkscape-font-specification:Porter;text-align:center;letter-spacing:0px;word-spacing:0px;text-anchor:middle;fill:#ffffff;fill-opacity:1;stroke:none;stroke-width:0.31347731"
             d="m 99.118466,122.47536 h 3.435704 v 3.73665 q -0.71473,0.63949 -1.49215,0.97805 -0.76489,0.33855 -1.692774,0.33855 -1.015664,0 -1.843241,-0.37617 -0.827574,-0.38871 -1.416901,-1.00313 -0.576807,-0.62695 -0.89028,-1.42945 -0.313477,-0.80251 -0.313477,-1.65516 0,-1.01567 0.37617,-1.84325 0.38872,-0.84012 1.003127,-1.41692 0.626954,-0.58933 1.429451,-0.90281 0.802494,-0.32602 1.655151,-0.32602 0.890274,0 1.730394,0.36364 0.84011,0.36363 1.52977,1.05328 l -1.19122,1.25391 q -0.46395,-0.43887 -1.00313,-0.67711 -0.526637,-0.25078 -1.065814,-0.25078 -0.564257,0 -1.065814,0.21316 -0.489027,0.21316 -0.865197,0.58934 -0.363627,0.37617 -0.576797,0.87773 -0.213157,0.50157 -0.213157,1.06583 0,0.56426 0.213157,1.06582 0.21317,0.48902 0.576797,0.8652 0.37617,0.36363 0.865197,0.5768 0.501557,0.21316 1.065814,0.21316 0.376167,0 0.752344,-0.10031 0.37617,-0.11285 0.70219,-0.30094 v -1.16614 h -1.705314 z" />
          <path
             inkscape:connector-curvature="0"
             id="path1027"
             style="font-style:normal;font-variant:normal;font-weight:normal;font-stretch:normal;font-size:medium;line-height:1.25;font-family:Porter;-inkscape-font-specification:Porter;text-align:center;letter-spacing:0px;word-spacing:0px;text-anchor:middle;fill:#ffffff;fill-opacity:1;stroke:none;stroke-width:0.31347731"
             d="m 108.83449,127.52861 q -0.82758,0 -1.61754,-0.31347 -0.78996,-0.31348 -1.41692,-0.87774 -0.61441,-0.5768 -0.99059,-1.3793 -0.37617,-0.81504 -0.37617,-1.81817 0,-0.8652 0.32602,-1.6677 0.33855,-0.8025 0.92789,-1.40438 0.58934,-0.61441 1.39184,-0.97805 0.8025,-0.36363 1.75547,-0.36363 0.84012,0 1.63008,0.32602 0.80251,0.32601 1.40438,0.91535 0.61442,0.58934 0.97805,1.40438 0.37618,0.8025 0.37618,1.76801 0,0.85266 -0.32602,1.64262 -0.32602,0.78997 -0.91536,1.40438 -0.57679,0.61442 -1.39183,0.97805 -0.80251,0.36363 -1.75548,0.36363 z m 0,-7.08458 q -0.56426,0 -1.05328,0.21316 -0.48903,0.21317 -0.85266,0.58934 -0.36363,0.36363 -0.5768,0.85266 -0.21316,0.48902 -0.21316,1.04074 0,0.55172 0.21316,1.04075 0.21317,0.48902 0.5768,0.85265 0.36363,0.36364 0.85266,0.5768 0.50156,0.20063 1.05328,0.20063 0.55172,0 1.02821,-0.21317 0.48902,-0.21316 0.85266,-0.57679 0.36363,-0.36364 0.57679,-0.84012 0.21317,-0.48903 0.21317,-1.04075 0,-0.55172 -0.21317,-1.04074 -0.21316,-0.48903 -0.58933,-0.85266 -0.36364,-0.37617 -0.85266,-0.58934 -0.47649,-0.21316 -1.01567,-0.21316 z" />
          <path
             inkscape:connector-curvature="0"
             id="path1029"
             style="font-style:normal;font-variant:normal;font-weight:normal;font-stretch:normal;font-size:medium;line-height:1.25;font-family:Porter;-inkscape-font-specification:Porter;text-align:center;letter-spacing:0px;word-spacing:0px;text-anchor:middle;fill:#ffffff;fill-opacity:1;stroke:none;stroke-width:0.31347731"
             d="m 119.2919,127.52861 q -0.82758,0 -1.61754,-0.31347 -0.78996,-0.31348 -1.41692,-0.87774 -0.61441,-0.5768 -0.99059,-1.3793 -0.37617,-0.81504 -0.37617,-1.81817 0,-0.8652 0.32602,-1.6677 0.33855,-0.8025 0.92789,-1.40438 0.58934,-0.61441 1.39184,-0.97805 0.8025,-0.36363 1.75547,-0.36363 0.84012,0 1.63008,0.32602 0.80251,0.32601 1.40438,0.91535 0.61442,0.58934 0.97805,1.40438 0.37617,0.8025 0.37617,1.76801 0,0.85266 -0.32601,1.64262 -0.32602,0.78997 -0.91536,1.40438 -0.57679,0.61442 -1.39184,0.97805 -0.8025,0.36363 -1.75547,0.36363 z m 0,-7.08458 q -0.56426,0 -1.05328,0.21316 -0.48903,0.21317 -0.85266,0.58934 -0.36363,0.36363 -0.5768,0.85266 -0.21316,0.48902 -0.21316,1.04074 0,0.55172 0.21316,1.04075 0.21317,0.48902 0.5768,0.85265 0.36363,0.36364 0.85266,0.5768 0.50156,0.20063 1.05328,0.20063 0.55172,0 1.02821,-0.21317 0.48902,-0.21316 0.85266,-0.57679 0.36363,-0.36364 0.57679,-0.84012 0.21317,-0.48903 0.21317,-1.04075 0,-0.55172 -0.21317,-1.04074 -0.21316,-0.48903 -0.58933,-0.85266 -0.36364,-0.37617 -0.85266,-0.58934 -0.47649,-0.21316 -1.01567,-0.21316 z" />
          <path
             inkscape:connector-curvature="0"
             id="path1031"
             style="font-style:normal;font-variant:normal;font-weight:normal;font-stretch:normal;font-size:medium;line-height:1.25;font-family:Porter;-inkscape-font-specification:Porter;text-align:center;letter-spacing:0px;word-spacing:0px;text-anchor:middle;fill:#ffffff;fill-opacity:1;stroke:none;stroke-width:0.31347731"
             d="m 125.91235,127.44084 v -8.77737 h 3.047 q 0.97805,0 1.75547,0.32602 0.78996,0.31348 1.34168,0.90282 0.55172,0.57679 0.85266,1.39184 0.30094,0.8025 0.30094,1.78055 0,0.92789 -0.30094,1.73039 -0.30094,0.78996 -0.85266,1.3793 -0.55172,0.58934 -1.34168,0.92789 -0.77742,0.33856 -1.75547,0.33856 z m 1.73039,-1.74293 h 1.31661 q 0.53918,0 0.99059,-0.20063 0.46394,-0.20062 0.8025,-0.55172 0.33855,-0.36363 0.52664,-0.84012 0.18809,-0.48902 0.18809,-1.04074 0,-0.55172 -0.18809,-1.02821 -0.18809,-0.48902 -0.52664,-0.84012 -0.33856,-0.36363 -0.8025,-0.56426 -0.45141,-0.21316 -0.99059,-0.21316 h -1.31661 z" />
        </g>
        <g
           transform="translate(8.424121,14.495532)"
           id="g1049"
           style="fill:#ffffff;fill-opacity:1">
          <path
             inkscape:connector-curvature="0"
             id="path1035"
             style="font-style:normal;font-variant:normal;font-weight:normal;font-stretch:normal;font-size:medium;line-height:1.25;font-family:Porter;-inkscape-font-specification:Porter;text-align:center;letter-spacing:0px;word-spacing:0px;text-anchor:middle;fill:#ffffff;fill-opacity:1;stroke:none;stroke-width:0.31347731"
             d="m 83.473753,132.07181 v 8.86513 h -1.730395 v -5.66767 l -3.159851,3.13478 -3.147313,-3.13478 v 5.66767 H 73.69326 v -8.86513 h 0.965511 l 3.924736,3.89965 3.937275,-3.89965 z" />
          <path
             inkscape:connector-curvature="0"
             id="path1037"
             style="font-style:normal;font-variant:normal;font-weight:normal;font-stretch:normal;font-size:medium;line-height:1.25;font-family:Porter;-inkscape-font-specification:Porter;text-align:center;letter-spacing:0px;word-spacing:0px;text-anchor:middle;fill:#ffffff;fill-opacity:1;stroke:none;stroke-width:0.31347731"
             d="m 87.974112,133.90251 v 1.76802 h 2.846374 v 1.75547 h -2.846374 v 1.76801 h 3.899658 v 1.74293 h -5.642592 v -8.77736 h 5.642592 v 1.74293 z" />
          <path
             inkscape:connector-curvature="0"
             id="path1039"
             style="font-style:normal;font-variant:normal;font-weight:normal;font-stretch:normal;font-size:medium;line-height:1.25;font-family:Porter;-inkscape-font-specification:Porter;text-align:center;letter-spacing:0px;word-spacing:0px;text-anchor:middle;fill:#ffffff;fill-opacity:1;stroke:none;stroke-width:0.31347731"
             d="m 97.55633,132.07181 3.94981,8.86513 h -1.918477 l -0.714728,-1.605 h -3.347938 q -0.163008,0.37617 -0.363634,0.81504 -0.188086,0.42633 -0.338555,0.78996 h -1.905942 l 3.899658,-8.86513 z m 0.539181,5.5172 -0.902815,-2.03134 -0.902814,2.03134 z" />
          <path
             inkscape:connector-curvature="0"
             id="path1041"
             style="font-style:normal;font-variant:normal;font-weight:normal;font-stretch:normal;font-size:medium;line-height:1.25;font-family:Porter;-inkscape-font-specification:Porter;text-align:center;letter-spacing:0px;word-spacing:0px;text-anchor:middle;fill:#ffffff;fill-opacity:1;stroke:none;stroke-width:0.31347731"
             d="m 105.35016,141.02472 q -0.5768,0 -1.11598,-0.16301 -0.53918,-0.16301 -1.01567,-0.46395 h 0.0125 q -0.33855,-0.21316 -0.60187,-0.46394 -0.26333,-0.25078 -0.36364,-0.36364 l 1.30407,-1.20375 q 0.0878,0.11285 0.27586,0.27586 0.20062,0.15047 0.45141,0.30094 0.25078,0.13793 0.52664,0.23824 0.27586,0.10031 0.52664,0.10031 0.21316,0 0.42633,-0.0502 0.21316,-0.0502 0.38871,-0.15047 0.17555,-0.11285 0.2884,-0.2884 0.11285,-0.17555 0.11285,-0.43887 0,-0.10031 -0.0752,-0.21316 -0.0627,-0.12539 -0.23825,-0.26332 -0.163,-0.13793 -0.46394,-0.2884 -0.30094,-0.16301 -0.75235,-0.33856 -0.52664,-0.20062 -0.97805,-0.42633 -0.45141,-0.23824 -0.78996,-0.55172 -0.32602,-0.31348 -0.5141,-0.71473 -0.17555,-0.40125 -0.17555,-0.92789 0,-0.53918 0.20062,-1.00313 0.20063,-0.47648 0.56426,-0.81504 0.37618,-0.35109 0.89028,-0.53918 0.52664,-0.20062 1.1536,-0.20062 0.33855,0 0.71472,0.0878 0.38872,0.0878 0.75235,0.2257 0.36363,0.13793 0.67711,0.32602 0.32602,0.17555 0.53918,0.36363 l -1.07836,1.35423 q -0.23824,-0.16301 -0.48902,-0.30094 -0.21317,-0.11285 -0.48903,-0.21317 -0.27586,-0.10031 -0.56426,-0.10031 -0.52664,0 -0.82758,0.21316 -0.2884,0.20063 -0.2884,0.58934 0,0.17555 0.10032,0.32602 0.11285,0.13793 0.28839,0.26332 0.18809,0.11285 0.42633,0.21316 0.23825,0.10032 0.50157,0.18809 0.75234,0.2884 1.26645,0.58934 0.5141,0.2884 0.82758,0.62695 0.31347,0.32602 0.43886,0.71473 0.13793,0.37617 0.13793,0.82758 0,0.55172 -0.2257,1.04075 -0.2257,0.48902 -0.62695,0.85265 -0.38872,0.3511 -0.94044,0.56426 -0.53918,0.20063 -1.17867,0.20063 z" />
          <path
             inkscape:connector-curvature="0"
             id="path1043"
             style="font-style:normal;font-variant:normal;font-weight:normal;font-stretch:normal;font-size:medium;line-height:1.25;font-family:Porter;-inkscape-font-specification:Porter;text-align:center;letter-spacing:0px;word-spacing:0px;text-anchor:middle;fill:#ffffff;fill-opacity:1;stroke:none;stroke-width:0.31347731"
             d="m 113.65202,141.02472 q -0.75235,0 -1.3793,-0.25078 -0.62696,-0.26332 -1.07837,-0.71473 -0.43886,-0.45141 -0.68965,-1.07836 -0.25078,-0.62696 -0.25078,-1.3793 v -5.44197 h 1.7304 v 5.21626 q 0,0.43887 0.13793,0.8025 0.13793,0.3511 0.36363,0.60188 0.23824,0.23824 0.53918,0.37617 0.30094,0.12539 0.62696,0.12539 0.32601,0 0.62695,-0.12539 0.30094,-0.13793 0.52664,-0.37617 0.23824,-0.25078 0.37617,-0.60188 0.13793,-0.36363 0.13793,-0.8025 v -5.21626 h 1.74294 v 5.44197 q 0,0.75234 -0.25078,1.3793 -0.25078,0.62695 -0.70219,1.07836 -0.45141,0.45141 -1.07836,0.71473 -0.62696,0.25078 -1.3793,0.25078 z" />
          <path
             inkscape:connector-curvature="0"
             id="path1045"
             style="font-style:normal;font-variant:normal;font-weight:normal;font-stretch:normal;font-size:medium;line-height:1.25;font-family:Porter;-inkscape-font-specification:Porter;text-align:center;letter-spacing:0px;word-spacing:0px;text-anchor:middle;fill:#ffffff;fill-opacity:1;stroke:none;stroke-width:0.31347731"
             d="m 126.90995,140.93694 h -2.13164 l -2.38243,-3.34793 h -1.05329 v 3.34793 h -1.73039 v -8.77736 h 3.54856 q 0.55172,0 1.04075,0.21316 0.48902,0.21317 0.85266,0.58934 0.37617,0.36364 0.58933,0.85266 0.22571,0.48902 0.22571,1.05328 0,0.82758 -0.42633,1.49216 -0.42633,0.65203 -1.11598,0.96551 z m -4.0752,-5.07833 q 0.66457,0 0.97805,-0.2884 0.31347,-0.30094 0.31347,-0.70219 0,-0.40125 -0.31347,-0.67711 -0.31348,-0.2884 -0.97805,-0.2884 h -1.49216 v 1.9561 z" />
          <path
             inkscape:connector-curvature="0"
             id="path1047"
             style="font-style:normal;font-variant:normal;font-weight:normal;font-stretch:normal;font-size:medium;line-height:1.25;font-family:Porter;-inkscape-font-specification:Porter;text-align:center;letter-spacing:0px;word-spacing:0px;text-anchor:middle;fill:#ffffff;fill-opacity:1;stroke:none;stroke-width:0.31347731"
             d="m 130.39151,133.90251 v 1.76802 h 2.84637 v 1.75547 h -2.84637 v 1.76801 h 3.89966 v 1.74293 h -5.64259 v -8.77736 h 5.64259 v 1.74293 z" />
        </g>
      </g>
    </g>
  </g>
</svg>
